<?xml version="1.0" standalone="no"?>
<!DOCTYPE svg PUBLIC "-//W3C//DTD SVG 20010904//EN"
 "http://www.w3.org/TR/2001/REC-SVG-20010904/DTD/svg10.dtd">
<svg version="1.0" xmlns="http://www.w3.org/2000/svg"
 width="2048.000000pt" height="2048.000000pt" viewBox="0 0 2048.000000 2048.000000"
 preserveAspectRatio="xMidYMid meet">

<g transform="translate(0.000000,2048.000000) scale(0.100000,-0.100000)"
fill="#000000" stroke="none">
<path d="M4235 19954 c-366 -29 -585 -65 -810 -133 -55 -17 -134 -40 -175 -52
-88 -24 -173 -57 -287 -110 -46 -20 -93 -41 -105 -44 -26 -8 -160 -69 -198
-91 -14 -7 -54 -28 -90 -46 -36 -17 -81 -44 -100 -58 -19 -15 -51 -35 -70 -45
-19 -10 -63 -40 -98 -66 -35 -27 -68 -49 -74 -49 -6 0 -35 -19 -64 -42 -29
-24 -84 -65 -121 -93 -214 -157 -562 -509 -700 -707 -23 -34 -57 -77 -76 -97
-19 -20 -42 -50 -51 -68 -9 -17 -53 -89 -99 -160 -45 -70 -95 -156 -111 -190
-17 -35 -33 -63 -37 -63 -18 0 -218 -476 -253 -600 -8 -30 -29 -104 -47 -165
-83 -290 -102 -391 -131 -705 -19 -210 -19 -12054 0 -12265 26 -287 65 -521
102 -620 25 -66 80 -263 80 -288 0 -10 13 -47 29 -81 30 -63 68 -153 102 -241
27 -70 78 -171 115 -230 17 -27 41 -72 52 -98 12 -26 59 -103 105 -170 45 -67
88 -133 94 -147 6 -14 28 -45 50 -70 21 -25 50 -61 63 -80 130 -191 572 -632
747 -746 28 -19 55 -39 58 -45 17 -26 444 -289 470 -289 7 0 20 -9 30 -21 27
-29 214 -115 485 -224 19 -8 112 -35 205 -61 94 -26 176 -52 183 -58 30 -22
260 -63 482 -86 290 -30 520 -31 6385 -27 5441 3 5952 5 6080 20 216 25 293
37 351 52 29 7 74 17 101 21 26 3 59 12 73 19 30 16 237 80 301 94 96 21 548
218 558 243 1 5 28 20 58 33 30 14 75 38 100 55 24 17 61 39 81 50 60 32 233
148 266 178 17 15 42 34 56 43 118 76 467 402 604 564 145 172 276 341 276
358 0 5 34 58 75 118 41 60 96 152 121 204 26 52 53 95 60 95 8 0 14 10 14 21
0 12 9 38 20 58 29 54 70 152 70 167 0 8 3 14 8 14 4 0 17 28 30 63 13 34 29
76 37 92 14 27 33 88 101 310 13 44 28 89 33 100 5 11 15 47 21 80 7 33 16 78
21 100 11 45 31 209 48 390 16 163 17 12129 1 12285 -6 58 -15 159 -21 225
-13 149 -46 301 -111 515 -83 276 -83 275 -251 670 -18 41 -40 82 -49 92 -10
10 -31 44 -47 77 -17 32 -65 112 -108 178 -42 65 -86 134 -97 155 -23 39 -76
108 -201 257 -45 53 -94 114 -110 135 -48 63 -397 388 -491 458 -48 34 -109
82 -136 106 -27 23 -53 42 -58 42 -5 0 -45 24 -89 53 -182 119 -276 173 -416
241 -114 55 -319 146 -330 146 -3 0 -27 10 -53 21 -26 12 -67 28 -92 35 -25 7
-85 24 -135 39 -246 72 -332 92 -465 111 -58 8 -154 22 -215 31 -101 15 -623
17 -6150 18 -3322 1 -6058 0 -6080 -1z m12045 -399 c164 -15 287 -32 301 -41
4 -2 45 -11 91 -20 137 -25 392 -91 465 -119 263 -102 369 -149 523 -233 339
-184 555 -347 845 -637 110 -110 221 -227 247 -260 101 -129 119 -153 174
-230 31 -44 62 -91 68 -105 6 -14 25 -46 44 -71 28 -41 71 -113 125 -214 35
-64 96 -204 132 -300 20 -55 52 -139 71 -186 73 -185 157 -567 185 -839 14
-145 22 -11894 7 -12065 -11 -135 -30 -254 -63 -405 -14 -63 -30 -140 -35
-170 -23 -124 -46 -202 -96 -335 -104 -277 -132 -341 -182 -433 -29 -50 -52
-95 -52 -98 0 -9 -140 -235 -158 -257 -9 -9 -29 -39 -46 -67 -34 -54 -197
-261 -280 -355 -29 -33 -104 -109 -167 -170 -202 -193 -278 -259 -364 -317
-22 -15 -65 -45 -95 -67 -30 -22 -66 -46 -80 -53 -14 -7 -47 -28 -75 -48 -27
-19 -75 -49 -105 -65 -30 -16 -77 -42 -105 -57 -60 -34 -216 -109 -265 -127
-19 -7 -49 -20 -67 -27 -17 -8 -40 -14 -51 -14 -11 0 -22 -4 -24 -9 -6 -19
-299 -117 -403 -136 -44 -8 -109 -21 -145 -29 -115 -27 -311 -55 -456 -66 -93
-7 -2093 -10 -6025 -10 -4982 1 -5908 3 -6039 15 -155 14 -417 58 -449 75 -10
5 -42 12 -72 16 -76 9 -180 37 -274 71 -281 105 -301 113 -455 187 -169 81
-453 252 -564 340 -152 121 -273 231 -414 375 -203 206 -290 312 -449 549 -28
42 -60 88 -71 102 -24 31 -215 409 -235 465 -8 22 -35 90 -60 152 -63 155
-157 516 -157 605 0 18 -4 48 -10 67 -5 19 -19 95 -30 170 l-21 136 0 5979 c1
3289 3 6009 7 6046 6 77 34 251 41 263 2 4 9 38 14 75 16 115 79 394 105 460
13 34 24 67 24 73 0 5 9 30 20 55 11 24 34 79 49 122 54 144 205 439 274 535
26 36 50 74 54 84 4 10 65 97 137 193 204 274 520 581 814 791 113 80 416 259
440 259 5 0 22 10 37 21 35 29 237 110 475 193 99 34 314 86 437 105 34 5 70
14 80 19 27 14 180 33 333 42 74 4 2772 8 5995 8 5168 2 5879 0 6025 -13z"/>
<path d="M7278 17504 c-26 -8 -50 -19 -54 -26 -5 -7 -2 -9 7 -4 8 4 5 1 -5 -8
-10 -8 -24 -13 -30 -9 -6 3 -8 2 -4 -2 5 -5 -5 -20 -20 -34 -16 -14 -34 -41
-41 -58 -8 -18 -18 -33 -23 -33 -5 0 -7 -4 -4 -8 2 -4 -4 -13 -14 -20 -19 -12
-19 -11 0 26 17 31 11 27 -46 -32 -36 -39 -72 -83 -81 -99 -14 -28 -14 -30 17
-62 17 -18 53 -43 78 -56 40 -20 102 -71 102 -85 0 -12 42 -51 97 -90 34 -25
63 -50 65 -56 2 -6 12 -9 21 -5 10 4 20 6 23 6 3 0 11 7 18 17 10 13 16 14 34
5 14 -7 22 -8 22 -2 0 6 7 8 15 5 8 -4 12 -11 8 -17 -3 -5 -1 -7 5 -3 6 3 14
1 17 -5 4 -5 14 -8 23 -4 9 3 13 3 10 -1 -4 -3 20 -24 52 -45 72 -49 96 -94
103 -198 l6 -74 68 -69 c64 -65 129 -116 94 -75 -12 15 -10 17 15 15 16 -1 36
-10 45 -20 9 -10 19 -15 23 -11 7 7 8 2 10 -43 4 -62 109 -123 134 -78 6 11
11 13 16 5 4 -6 12 -11 17 -11 6 0 8 4 4 9 -8 14 58 10 67 -3 5 -7 8 -7 8 2 0
7 5 10 10 7 6 -4 8 -10 5 -15 -5 -8 51 -26 68 -22 10 3 37 -24 37 -37 0 -5 7
-14 16 -19 22 -12 54 -116 54 -177 0 -29 -7 -71 -15 -94 -8 -23 -14 -43 -15
-46 -8 -64 -32 -96 -74 -100 -14 -2 -30 -6 -35 -10 -6 -3 -11 -3 -11 2 0 4
-35 8 -78 9 -116 1 -159 23 -212 112 -37 64 -41 75 -39 131 1 34 0 63 -2 65
-2 3 -24 28 -49 56 -25 29 -85 86 -135 128 -49 41 -100 84 -113 96 l-23 21 5
-30 c15 -76 28 -207 28 -275 0 -115 38 -526 53 -567 2 -7 11 -10 19 -7 8 3 17
0 21 -5 3 -6 11 -9 16 -6 5 4 9 0 9 -7 0 -10 3 -9 9 1 8 12 12 9 21 -15 7 -16
17 -38 22 -49 7 -12 7 -20 1 -22 -6 -2 -5 -23 4 -55 28 -112 11 -190 -58 -259
-38 -39 -56 -49 -104 -59 -105 -22 -185 4 -239 79 -43 59 -59 113 -53 182 7
88 34 147 80 177 l40 26 -7 106 c-4 58 -11 146 -16 195 -23 223 -31 298 -40
410 -6 66 -15 137 -21 157 -10 39 -41 64 -61 52 -6 -4 -8 -3 -4 4 3 6 -2 13
-13 17 -32 10 -57 38 -69 81 -23 78 -32 144 -23 167 8 21 -1 34 -90 118 -55
51 -107 98 -117 102 -9 5 -47 41 -84 79 -48 49 -72 68 -84 64 -9 -3 -14 -12
-11 -20 6 -16 -13 -77 -32 -100 -16 -19 -56 -22 -45 -3 4 6 -5 1 -20 -13 -40
-36 -119 -140 -107 -140 6 0 11 5 11 11 0 5 5 7 10 4 6 -4 4 -12 -5 -21 -8 -9
-13 -21 -9 -27 3 -7 -1 -4 -9 6 -14 17 -16 16 -42 -15 -15 -18 -32 -43 -38
-55 -6 -13 -14 -23 -19 -23 -5 0 -7 -4 -4 -9 7 -11 -29 -53 -38 -44 -3 3 -6
-1 -6 -10 0 -9 -5 -17 -11 -17 -5 0 -7 -4 -4 -10 3 -5 0 -10 -8 -10 -8 0 -27
-16 -41 -35 -21 -27 -23 -35 -12 -35 9 0 16 -4 16 -9 0 -5 -8 -7 -18 -4 -10 2
-24 -3 -31 -11 -9 -11 -10 -16 -2 -16 6 0 11 5 11 10 0 6 5 10 10 10 19 0 10
-19 -30 -61 -22 -23 -40 -37 -40 -30 0 21 -143 -131 -165 -174 -11 -22 -26
-44 -32 -48 -28 -17 -84 -103 -94 -142 -6 -23 -24 -57 -40 -76 -32 -37 -40
-103 -16 -128 10 -11 9 -13 -1 -7 -10 6 -10 2 0 -18 13 -29 28 -34 28 -10 0 8
5 12 11 9 6 -4 8 -9 5 -12 -2 -3 0 -16 5 -30 8 -21 7 -24 -6 -19 -13 5 -14 2
-5 -15 19 -34 210 -227 264 -266 28 -20 45 -29 38 -21 -7 9 -11 22 -9 29 2 8
2 11 0 7 -7 -12 -20 -9 -26 5 -3 7 5 13 19 13 15 1 24 -4 24 -12 0 -8 10 -14
26 -14 23 0 25 -2 14 -16 -8 -8 -9 -14 -4 -13 5 1 16 1 24 0 12 -1 12 -4 -3
-12 -9 -5 -22 -7 -27 -4 -6 3 -10 2 -10 -3 0 -16 104 -105 108 -93 2 6 15 11
28 11 15 0 22 -4 19 -10 -3 -6 2 -14 12 -18 23 -9 28 -46 5 -37 -10 3 -4 -8
13 -25 34 -36 85 -66 85 -50 0 6 12 3 28 -7 41 -27 52 -40 52 -61 0 -19 58
-79 97 -100 10 -6 44 -36 76 -66 33 -31 64 -56 70 -56 12 0 27 -13 97 -86 28
-28 68 -59 90 -70 44 -21 42 -12 60 -209 6 -60 15 -148 20 -195 5 -47 16 -150
25 -230 8 -80 20 -167 25 -193 17 -82 14 -94 -22 -100 -107 -20 -229 -47 -237
-51 -5 -3 -42 -10 -82 -16 -135 -19 -197 -35 -484 -125 -325 -103 -370 -118
-380 -125 -5 -4 -75 -33 -155 -64 -80 -31 -152 -60 -160 -65 -8 -5 -65 -35
-127 -66 -62 -30 -115 -60 -118 -66 -4 -5 -11 -6 -17 -3 -5 4 -22 -2 -36 -13
-15 -11 -76 -46 -136 -79 -91 -49 -456 -280 -491 -311 -5 -5 -35 -27 -65 -50
-200 -150 -599 -523 -648 -605 -9 -16 -20 -28 -24 -28 -12 0 -46 -39 -173
-207 -177 -231 -337 -476 -420 -643 -21 -41 -44 -85 -53 -98 -17 -26 -98 -202
-114 -247 -6 -16 -31 -77 -55 -135 -74 -172 -89 -211 -113 -295 -12 -44 -40
-138 -62 -209 -44 -142 -73 -185 -157 -233 -220 -126 -357 -283 -415 -478 -10
-33 -25 -78 -32 -100 -7 -22 -25 -107 -40 -190 -49 -277 -43 -741 15 -1105 58
-362 93 -516 169 -735 66 -190 95 -252 157 -340 95 -133 194 -197 464 -300
131 -50 134 -52 150 -91 9 -22 26 -56 39 -76 12 -19 22 -41 22 -47 0 -7 16
-37 35 -67 19 -30 35 -57 35 -61 0 -31 247 -428 312 -503 28 -32 117 -149 126
-167 12 -21 121 -142 235 -258 43 -44 90 -93 105 -108 24 -26 133 -118 337
-286 39 -32 106 -82 150 -112 44 -29 105 -70 136 -91 32 -21 65 -41 75 -45 11
-3 71 -38 134 -76 155 -94 363 -198 485 -242 55 -20 127 -50 160 -66 59 -30
167 -68 415 -147 176 -57 298 -87 425 -107 61 -9 137 -23 170 -30 33 -7 89
-16 125 -20 36 -4 90 -15 120 -26 30 -10 132 -28 225 -40 144 -18 233 -22 580
-25 356 -3 431 -1 570 16 277 33 340 42 345 50 3 4 93 21 200 39 308 51 421
76 630 141 107 33 199 60 205 60 15 0 223 78 255 96 14 7 84 36 157 63 72 28
166 68 210 89 60 30 280 141 313 159 3 2 5 -383 5 -854 l0 -858 23 -100 c13
-55 42 -147 64 -205 38 -96 53 -126 130 -245 53 -82 180 -195 338 -302 76 -51
179 -89 320 -117 l135 -27 2745 4 2745 3 92 26 c107 32 204 71 253 102 19 13
62 40 95 62 33 21 99 77 146 124 190 189 274 367 328 691 15 92 16 3084 0
3212 -10 92 -58 250 -118 394 -55 135 -146 254 -275 361 -143 119 -266 181
-448 229 l-103 27 -2167 3 c-1193 2 -2169 4 -2170 6 -2 1 9 41 24 87 47 148
85 282 108 383 l23 98 93 70 c51 38 130 104 174 146 77 72 170 182 170 200 0
4 11 28 24 53 66 125 103 350 111 675 4 206 -28 592 -65 760 -13 59 -15 109
-6 123 4 7 41 35 81 62 41 28 104 72 141 100 l67 50 1621 0 c988 0 1665 4
1733 10 65 6 147 21 195 36 101 31 81 22 210 91 85 46 130 79 214 157 59 55
113 115 120 133 8 18 22 37 32 42 32 17 103 158 148 293 83 250 77 91 75 1853
0 864 -3 1608 -7 1655 -15 217 -96 450 -210 605 -84 114 -107 140 -190 211
-146 126 -280 193 -469 237 l-90 22 -2570 3 c-1879 2 -2590 0 -2645 -8 -278
-42 -467 -135 -646 -316 -151 -154 -223 -276 -292 -494 -46 -145 -54 -296 -50
-973 3 -568 2 -595 -27 -568 -6 5 -68 39 -140 76 -71 38 -132 72 -135 76 -3 3
-72 37 -155 74 -82 36 -173 77 -202 91 -28 13 -107 43 -175 65 -68 23 -142 50
-165 60 -67 29 -239 79 -358 105 -278 61 -406 87 -480 99 -44 7 -103 18 -132
24 -76 15 -317 32 -568 40 l-220 6 -7 55 c-3 30 -18 122 -32 204 -14 83 -35
220 -46 305 -11 86 -27 205 -35 265 -14 110 -14 110 8 125 12 9 25 15 29 14 3
-1 25 19 48 45 22 26 64 72 91 103 28 31 69 83 92 115 23 33 47 64 53 69 21
18 126 139 155 179 29 38 38 63 20 52 -5 -4 -7 3 -4 14 3 11 9 20 14 20 5 0 9
5 9 11 0 5 -5 7 -12 3 -7 -4 -8 -3 -4 4 4 7 14 12 22 12 8 0 14 5 14 12 0 9 3
9 12 0 7 -7 15 -12 19 -12 3 0 30 30 58 68 98 128 151 197 161 210 6 6 8 12 5
12 -3 0 19 24 48 53 33 31 67 79 87 120 31 62 32 72 27 140 -3 39 -13 92 -23
116 -18 46 -90 123 -209 226 -38 33 -89 78 -113 100 -47 43 -102 76 -114 68
-5 -2 -8 3 -8 11 0 8 -9 18 -20 21 -11 3 -20 12 -20 19 0 16 -153 157 -260
241 -41 32 -88 72 -105 88 -47 46 -145 119 -145 108 0 -6 -7 -8 -15 -5 -8 4
-15 10 -15 16 0 5 5 6 12 2 21 -13 -3 17 -46 56 -22 21 -72 64 -111 97 -38 32
-86 75 -106 94 -20 19 -60 49 -90 68 -30 18 -59 43 -65 54 -5 12 -34 37 -64
54 -47 29 -63 33 -120 32 -36 0 -86 -7 -112 -15z m698 -431 c-8 -8 -36 5 -36
17 0 7 6 7 21 0 11 -7 18 -14 15 -17z m-1329 -302 c-1 -11 -6 -17 -14 -14 -10
4 -11 9 -2 19 15 19 18 18 16 -5z m1997 -276 c-4 -8 -8 -15 -10 -15 -2 0 -4 7
-4 15 0 8 4 15 10 15 5 0 7 -7 4 -15z m310 -261 c3 -8 3 -14 0 -14 -7 0 -34
27 -34 34 0 11 29 -6 34 -20z m-1027 -426 c-3 -8 -6 -5 -6 6 -1 11 2 17 5 13
3 -3 4 -12 1 -19z m43 -32 c0 -3 -7 -3 -15 0 -8 4 -15 13 -15 21 0 12 2 12 15
-1 8 -8 15 -17 15 -20z m9200 -522 c93 -21 143 -40 237 -86 100 -48 239 -174
308 -278 85 -127 118 -214 155 -406 7 -33 9 -620 7 -1675 l-3 -1624 -26 -106
c-14 -59 -41 -135 -59 -170 -44 -88 -168 -268 -193 -281 -12 -6 -42 -30 -67
-54 -65 -60 -237 -141 -353 -166 -89 -19 -136 -20 -1771 -21 l-1680 -2 -55
-36 c-30 -20 -69 -45 -86 -55 -36 -21 -232 -154 -309 -209 -27 -20 -75 -52
-105 -72 -30 -19 -73 -48 -95 -64 -22 -16 -78 -54 -125 -86 -47 -31 -110 -76
-141 -99 -58 -44 -213 -152 -287 -201 -24 -15 -91 -61 -149 -102 -208 -144
-274 -169 -321 -118 -31 33 -35 71 -17 157 8 41 27 145 41 230 13 85 33 193
43 240 11 47 29 132 41 190 12 58 27 133 35 168 l13 62 -126 0 c-141 0 -218
16 -349 70 -204 84 -367 249 -459 465 -87 204 -82 98 -81 1830 0 836 4 1574 8
1641 8 141 22 216 49 270 11 21 20 47 20 59 0 44 92 179 184 270 113 113 142
134 235 181 83 40 176 70 261 83 30 5 1203 9 2605 10 2257 1 2557 -1 2615 -15z
m-9260 -602 c0 -4 -6 -14 -12 -21 -10 -11 -10 -13 0 -7 7 5 12 1 12 -9 0 -10
-5 -13 -12 -9 -7 4 -8 3 -4 -5 4 -6 -8 -41 -27 -79 -23 -44 -33 -77 -31 -97 6
-51 64 -467 73 -522 l8 -53 -46 0 c-25 0 -75 -4 -111 -9 -36 -5 -110 -12 -166
-16 l-101 -7 -6 59 c-3 32 -15 140 -27 240 -12 100 -20 207 -18 237 l3 55 45
-20 c38 -18 58 -20 126 -15 116 8 153 23 180 71 12 22 19 46 16 55 -3 8 -1 12
3 8 14 -13 33 35 21 51 -8 11 -8 13 1 7 9 -5 12 1 9 21 -3 31 18 63 27 40 3
-7 6 -5 6 5 1 9 -5 19 -11 21 -7 3 -1 6 15 6 15 1 27 -3 27 -7z m615 -1097
c349 -12 775 -67 901 -116 16 -6 106 -30 199 -54 257 -66 537 -168 560 -206 5
-7 16 -44 26 -83 10 -39 29 -111 43 -161 50 -174 96 -518 96 -710 l0 -93 -53
12 c-29 7 -58 16 -65 20 -19 11 -290 63 -397 75 -271 32 -410 39 -655 36 -419
-6 -847 -42 -1160 -97 -523 -91 -673 -125 -950 -213 -58 -18 -143 -45 -189
-59 -46 -15 -111 -37 -145 -51 -223 -88 -298 -115 -306 -110 -5 3 -34 54 -66
113 -32 59 -76 136 -98 172 -55 87 -57 91 -85 141 -75 138 -165 252 -330 423
-115 117 -174 167 -282 237 -31 21 -60 42 -64 49 -7 12 39 59 58 60 5 0 39 14
75 31 37 17 123 55 191 85 68 30 136 61 150 69 30 17 190 79 241 93 19 6 73
24 120 40 148 52 211 70 400 117 102 25 205 52 230 60 210 67 952 141 1285
129 55 -2 177 -6 270 -9z m2085 -561 c62 -32 174 -94 288 -158 l52 -29 0 -71
c0 -39 1 -241 3 -449 1 -207 0 -376 -3 -374 -23 14 -169 79 -226 102 -68 26
-72 29 -78 64 -3 20 -6 75 -6 123 0 92 -14 255 -30 348 -5 30 -14 91 -20 135
-6 44 -17 107 -25 140 -8 33 -16 78 -20 99 -3 22 -10 44 -15 51 -5 6 -14 23
-19 39 -10 26 -10 27 11 20 13 -3 52 -22 88 -40z m-5372 -283 c15 -10 79 -52
142 -94 82 -55 147 -109 226 -189 119 -120 234 -253 234 -271 0 -6 24 -42 54
-81 87 -116 276 -427 276 -456 0 -10 -27 -30 -72 -54 -215 -113 -298 -170
-557 -383 -148 -122 -407 -391 -478 -498 -15 -22 -57 -83 -93 -135 -72 -103
-260 -447 -260 -474 0 -9 -8 -33 -19 -54 -32 -64 -110 -298 -125 -379 -45
-237 -57 -312 -73 -453 -38 -328 -20 -631 63 -1115 27 -152 107 -413 182 -590
46 -109 164 -349 187 -380 12 -16 29 -43 37 -60 22 -41 140 -198 200 -263 26
-30 48 -59 48 -66 0 -13 162 -173 275 -271 212 -185 392 -303 655 -430 130
-64 161 -78 262 -125 26 -12 93 -35 150 -51 56 -16 103 -31 105 -33 10 -10
-169 -380 -218 -453 -16 -23 -29 -44 -29 -48 0 -17 -187 -249 -215 -265 -11
-7 -38 -33 -60 -59 -39 -45 -69 -71 -204 -175 l-64 -49 -54 13 c-94 21 -486
211 -662 321 -198 124 -235 149 -342 234 -129 102 -256 211 -314 270 -33 34
-71 70 -85 81 -42 33 -161 165 -247 275 -45 57 -111 140 -146 184 -35 44 -69
91 -77 105 -7 14 -45 75 -85 135 -40 61 -91 148 -114 195 -23 47 -46 89 -52
95 -16 16 -10 33 15 39 34 8 143 122 171 177 13 25 33 81 45 125 12 43 30 111
41 149 29 109 66 317 80 460 16 162 16 568 0 735 -23 232 -108 726 -167 965
-16 64 -63 203 -74 220 -4 6 -15 35 -24 65 -10 30 -43 109 -73 175 -123 265
-185 355 -294 421 -32 19 -59 41 -60 47 -3 34 7 72 46 172 23 61 46 125 50
144 4 19 15 48 24 65 21 37 114 254 135 314 15 42 47 103 110 212 17 30 38 67
46 83 23 42 235 363 293 444 29 40 71 91 93 115 22 24 62 72 89 108 70 91 327
345 470 462 66 55 140 116 164 136 24 20 58 45 75 56 17 10 62 42 100 70 54
40 143 97 164 105 2 1 15 -7 30 -18z m5891 -2615 c41 -30 59 -65 62 -114 3
-62 0 -76 -24 -103 -19 -23 -288 -199 -302 -199 -3 0 -45 -26 -93 -58 -48 -32
-114 -74 -147 -92 -33 -19 -117 -70 -187 -114 -69 -45 -148 -93 -175 -108
-105 -60 -128 -75 -128 -87 0 -15 134 -74 385 -168 120 -45 245 -94 275 -109
47 -22 208 -84 218 -84 9 0 47 -16 183 -75 42 -18 55 -31 73 -67 31 -66 28
-125 -9 -170 -17 -20 -46 -42 -66 -48 -63 -21 -108 -8 -454 135 -85 35 -265
107 -400 160 -634 248 -623 243 -655 306 -8 15 -15 47 -15 70 0 99 39 156 151
222 35 20 105 62 154 93 136 85 136 85 226 140 194 118 254 157 281 179 15 13
38 27 49 30 12 4 61 33 109 64 47 31 112 72 144 91 31 19 89 56 129 82 64 42
78 47 128 48 43 0 62 -5 88 -24z m-7792 -236 c76 -110 112 -186 208 -447 19
-50 43 -131 55 -180 11 -48 29 -122 40 -163 34 -134 81 -381 101 -540 26 -204
37 -660 20 -844 -26 -275 -43 -369 -107 -567 -57 -175 -71 -183 -221 -125 -48
19 -137 54 -197 77 -114 45 -174 80 -217 126 -84 91 -220 458 -274 739 -7 39
-18 89 -24 110 -10 40 -30 158 -53 319 -8 59 -13 205 -13 425 0 289 3 346 18
415 43 187 71 287 91 317 11 18 28 49 37 69 9 20 29 45 44 55 14 11 45 34 68
51 23 18 106 76 185 129 78 53 145 101 148 106 13 21 42 -2 91 -72z m9896
-172 c30 -110 58 -337 64 -523 6 -203 -13 -422 -46 -516 -34 -97 -68 -185 -86
-218 -16 -31 -125 -144 -132 -137 -2 2 2 55 9 117 19 177 17 775 -4 989 -9 96
-20 184 -23 195 -4 15 6 28 42 55 52 39 145 99 153 100 3 0 13 -28 23 -62z
m-6748 -44 c120 -51 412 -168 660 -265 55 -22 163 -66 240 -99 77 -32 187 -77
245 -100 124 -49 155 -75 177 -149 34 -117 -22 -184 -274 -331 -23 -14 -89
-54 -145 -89 -57 -35 -155 -96 -218 -136 -63 -39 -137 -85 -165 -102 -27 -18
-93 -58 -145 -91 -52 -33 -111 -68 -130 -78 -19 -11 -37 -21 -40 -24 -13 -15
-71 -51 -126 -79 -145 -73 -265 -10 -251 132 5 59 26 82 127 145 41 26 117 75
168 110 51 34 97 62 101 62 7 0 109 63 414 257 169 107 212 138 212 153 0 16
-141 75 -510 215 -117 44 -302 121 -329 136 -11 6 -59 26 -107 44 -120 44
-173 77 -193 119 -21 45 -20 81 5 132 24 51 39 64 82 74 62 15 93 9 202 -36z
m6299 -454 c20 -262 20 -363 1 -595 -18 -221 -29 -329 -56 -510 -20 -137 -71
-375 -88 -405 -9 -17 -74 -222 -91 -288 -6 -24 -17 -45 -23 -48 -7 -2 -79 -3
-159 -2 l-146 3 23 45 c12 25 45 87 73 138 49 90 144 314 183 433 47 142 115
472 150 720 12 85 7 534 -7 636 -6 40 -5 43 28 56 18 8 44 24 57 36 19 16 27
19 32 9 4 -7 14 -110 23 -228z m-3337 -755 c46 -30 65 -74 58 -134 -11 -105
-55 -131 -250 -151 -60 -6 -126 -13 -145 -16 -165 -20 -822 -74 -848 -69 -43
8 -112 74 -113 108 -1 15 -2 33 -3 40 -8 53 43 129 98 146 17 6 144 19 281 30
221 18 619 53 730 65 69 7 167 -3 192 -19z m1050 -820 c37 -8 111 -30 163 -49
115 -41 317 -114 460 -166 58 -20 159 -58 225 -83 66 -25 163 -60 215 -78 52
-17 160 -55 240 -83 l145 -51 2625 -5 2625 -5 55 -21 c221 -86 374 -213 492
-407 70 -115 94 -175 116 -286 16 -79 17 -220 17 -1661 0 -1650 0 -1635 -43
-1775 -15 -51 -81 -174 -136 -256 -98 -145 -235 -242 -459 -321 l-92 -33
-2670 -3 c-1735 -2 -2705 1 -2770 7 -160 16 -340 94 -455 195 -119 106 -223
255 -273 393 l-32 88 -5 1655 -5 1655 -22 45 c-12 25 -29 56 -37 70 -9 14 -42
79 -74 145 -32 66 -81 163 -108 215 -27 52 -56 111 -65 130 -22 51 -167 341
-185 370 -8 14 -37 70 -65 124 -57 111 -59 149 -12 186 31 24 41 24 130 5z
m193 -1527 c3 -164 5 -927 2 -938 -4 -18 -68 -61 -161 -108 -37 -18 -79 -41
-96 -50 -76 -44 -182 -98 -224 -113 -60 -22 -162 -65 -228 -95 -29 -13 -103
-40 -165 -60 -62 -19 -121 -40 -132 -46 -10 -5 -42 -17 -70 -25 -28 -8 -64
-21 -81 -28 -36 -16 -159 -53 -200 -60 -16 -2 -82 -16 -145 -30 -581 -130
-749 -149 -1325 -149 -498 0 -808 27 -1090 94 -44 10 -96 22 -115 25 -19 4
-57 13 -85 21 -65 18 -173 44 -205 50 -14 2 -39 6 -57 9 -18 3 -45 12 -60 20
-15 8 -35 15 -43 15 -45 1 -38 18 27 70 38 30 94 79 126 110 65 61 234 267
265 321 11 19 41 66 67 105 27 38 57 87 67 109 11 22 26 51 34 65 7 14 14 33
14 43 0 11 6 33 14 50 27 59 64 156 71 184 13 61 20 63 125 38 52 -13 149 -30
215 -39 66 -9 149 -21 185 -26 36 -5 129 -14 205 -20 77 -6 187 -14 245 -19
105 -9 532 -6 580 4 14 2 106 9 205 15 164 10 522 47 670 70 96 15 280 56 420
93 72 20 159 41 195 47 124 22 677 216 715 251 13 13 35 11 35 -3z"/>
<path d="M12060 14476 c-100 -38 -164 -112 -179 -208 -15 -94 14 -212 65 -263
61 -62 108 -80 204 -80 74 0 91 3 131 27 114 67 173 187 149 304 -14 68 -70
153 -123 186 -72 46 -176 60 -247 34z"/>
<path d="M12929 14478 c-55 -14 -128 -77 -163 -138 -27 -48 -31 -64 -30 -127
2 -160 116 -279 276 -291 58 -4 75 -1 122 22 69 34 118 88 146 162 41 108 14
215 -78 311 -38 39 -57 51 -100 61 -62 14 -122 14 -173 0z"/>
<path d="M13805 14477 c-77 -20 -92 -32 -145 -114 -61 -92 -69 -128 -46 -213
22 -84 55 -140 105 -174 113 -78 228 -75 346 10 67 47 76 62 95 145 15 68 0
175 -31 226 -62 100 -200 151 -324 120z"/>
<path d="M11941 13383 c-38 -19 -71 -66 -71 -101 0 -39 29 -83 65 -98 42 -17
427 -20 472 -3 94 35 108 140 26 195 -25 17 -51 19 -243 22 -187 2 -219 0
-249 -15z"/>
<path d="M12741 13387 c-104 -37 -98 -177 8 -208 24 -7 544 -9 1580 -7 l1543
3 29 35 c42 49 40 98 -5 148 l-34 37 -1544 2 c-1183 2 -1551 -1 -1577 -10z"/>
<path d="M12727 12922 c-42 -28 -56 -53 -57 -99 0 -33 6 -50 29 -75 l29 -33
2169 -3 c2153 -2 2168 -2 2201 18 79 48 65 159 -24 196 -28 12 -378 14 -2176
14 -2057 0 -2144 -1 -2171 -18z"/>
<path d="M11946 12480 c-44 -22 -68 -62 -68 -108 1 -52 15 -78 52 -97 31 -16
-110 -15 2708 -15 l994 0 29 31 c55 58 47 140 -16 179 -33 20 -45 20 -1851 23
-1600 2 -1823 0 -1848 -13z"/>
<path d="M12717 12014 c-17 -9 -30 -26 -34 -44 -7 -39 -7 -37 8 -94 24 -87
-42 -81 854 -81 890 0 827 -6 860 77 24 60 4 116 -52 147 -16 8 -237 11 -815
11 -688 -1 -797 -3 -821 -16z"/>
<path d="M14647 12019 c-23 -13 -47 -62 -47 -94 0 -43 36 -101 72 -116 35 -15
68 -15 1496 -11 l664 2 28 30 c35 38 45 88 26 133 -30 72 60 67 -1141 67 -715
-1 -1086 -4 -1098 -11z"/>
<path d="M12731 11573 c-63 -31 -87 -102 -56 -163 32 -62 10 -60 570 -60 560
0 538 -2 570 60 25 49 19 83 -24 131 l-39 44 -493 3 c-449 2 -497 1 -528 -15z"/>
<path d="M14141 11582 c-33 -3 -55 -12 -88 -39 -39 -32 -43 -39 -43 -80 0 -38
5 -50 34 -79 l34 -34 801 0 c793 0 801 0 821 20 27 27 40 62 40 107 0 48 -53
103 -101 104 -85 3 -1459 4 -1498 1z"/>
<path d="M7861 14596 c-9 -11 -9 -16 1 -22 7 -4 10 -4 6 1 -4 4 -3 14 3 22 6
7 9 13 6 13 -2 0 -10 -6 -16 -14z"/>
<path d="M16822 6425 c-16 -35 -15 -52 4 -59 32 -12 63 -6 75 16 10 19 8 25
-17 45 -37 29 -48 29 -62 -2z"/>
<path d="M11667 6429 c-22 -13 -47 -61 -47 -93 0 -15 -8 -30 -20 -36 -27 -15
-27 -60 0 -60 18 0 20 -8 22 -147 l3 -148 38 -3 37 -3 0 150 0 151 40 0 c38 0
40 2 40 30 0 28 -2 30 -40 30 -37 0 -40 2 -40 28 0 34 16 52 46 52 12 0 29 11
37 24 15 22 15 25 1 30 -25 9 -97 6 -117 -5z"/>
<path d="M12614 6351 c-5 -31 -12 -41 -30 -45 -19 -5 -24 -13 -24 -36 0 -27 3
-30 30 -30 l30 0 0 -126 c0 -125 0 -126 29 -155 33 -33 75 -38 107 -14 19 15
18 15 -6 34 -61 48 -60 46 -60 140 0 49 -3 96 -6 105 -4 11 3 15 33 18 33 3
38 7 41 30 3 24 0 27 -35 30 -37 3 -38 4 -41 46 -3 39 -5 42 -32 42 -27 0 -30
-4 -36 -39z"/>
<path d="M17020 6365 c0 -37 -11 -56 -37 -66 -19 -7 -24 -15 -21 -37 2 -21 9
-28 31 -30 l27 -3 0 -120 c0 -120 0 -121 29 -150 33 -32 83 -39 115 -16 17 12
15 16 -28 53 -50 43 -53 52 -48 192 l2 52 41 0 c33 0 40 3 35 16 -3 9 -6 22
-6 30 0 10 -12 14 -40 14 -37 0 -40 2 -40 28 0 35 -11 51 -38 57 -18 3 -22 -1
-22 -20z"/>
<path d="M13980 6345 c0 -29 -5 -37 -25 -45 -18 -7 -25 -17 -25 -35 0 -20 5
-25 25 -25 l25 0 0 -102 c0 -157 23 -208 91 -208 68 0 81 38 24 66 -43 20 -47
34 -43 149 l3 90 33 3 c28 3 32 7 32 33 0 27 -3 29 -35 29 -34 0 -35 1 -35 40
0 39 -1 40 -35 40 -33 0 -35 -2 -35 -35z"/>
<path d="M11904 6285 c-58 -35 -79 -81 -79 -177 0 -62 4 -82 21 -105 68 -92
212 -97 285 -10 25 30 24 35 -13 45 -29 8 -37 6 -65 -21 -43 -40 -83 -40 -124
-1 -21 20 -29 36 -27 54 l3 25 123 3 c139 3 135 0 105 88 -23 70 -39 90 -84
108 -55 22 -97 20 -145 -9z m140 -67 c56 -51 23 -82 -74 -73 -25 2 -51 4 -57
4 -22 1 -14 33 14 63 34 35 81 38 117 6z"/>
<path d="M12289 6299 c-35 -10 -69 -50 -69 -82 0 -24 31 -29 54 -9 40 37 64
44 102 32 39 -13 73 -55 57 -71 -6 -6 -32 -12 -59 -15 -55 -6 -113 -20 -130
-31 -39 -29 -56 -101 -31 -134 22 -29 81 -59 115 -59 18 0 47 7 64 16 20 10
33 12 37 6 9 -14 59 -23 66 -12 3 5 6 65 6 134 0 141 -13 186 -58 209 -39 21
-111 28 -154 16z m142 -216 c2 -33 -3 -48 -23 -69 -25 -28 -59 -34 -96 -18
-78 32 -34 104 64 104 44 0 54 -3 55 -17z"/>
<path d="M13263 6299 c-38 -11 -66 -48 -61 -80 5 -33 21 -33 58 -2 38 32 85
35 124 10 27 -18 37 -66 14 -68 -106 -6 -180 -29 -203 -62 -8 -12 -15 -40 -15
-62 0 -33 6 -47 30 -70 37 -36 116 -46 155 -21 21 14 28 15 48 3 12 -8 28 -13
35 -12 6 2 17 3 22 4 6 1 10 52 10 131 0 111 -3 137 -20 170 -11 22 -28 43
-38 48 -28 15 -124 21 -159 11z m147 -227 c0 -44 -48 -84 -96 -80 -30 2 -42 9
-54 31 -14 27 -14 29 13 53 22 19 39 24 83 24 53 0 54 -1 54 -28z"/>
<path d="M13567 6303 c-9 -15 10 -278 21 -303 30 -67 87 -86 164 -55 28 11 44
13 46 6 2 -6 17 -11 33 -11 l29 0 0 180 0 180 -35 0 -35 0 0 -134 c0 -153 -6
-166 -69 -166 -61 0 -69 17 -75 163 -3 71 -8 132 -11 138 -7 11 -62 12 -68 2z"/>
<path d="M14285 6297 c-16 -8 -47 -33 -67 -56 -37 -40 -38 -43 -38 -120 0 -71
3 -82 31 -120 46 -65 127 -88 207 -60 40 14 93 95 99 152 6 54 -27 143 -66
181 -35 33 -118 45 -166 23z m104 -63 c13 -9 29 -32 37 -50 52 -125 -51 -251
-136 -166 -92 92 -3 287 99 216z"/>
<path d="M14958 6285 c-41 -28 -88 -113 -88 -159 0 -80 45 -157 107 -182 79
-33 161 -8 210 65 27 40 23 51 -22 51 -27 0 -37 -6 -55 -35 -25 -41 -57 -46
-107 -15 -38 23 -58 83 -48 144 14 91 85 113 155 50 44 -39 70 -40 70 -1 0 33
-36 76 -76 93 -51 21 -104 17 -146 -11z"/>
<path d="M15363 6304 c-33 -8 -89 -68 -97 -104 -3 -18 -6 -63 -6 -100 0 -58 4
-72 30 -108 69 -96 227 -76 281 36 38 78 8 203 -60 252 -30 21 -105 33 -148
24z m118 -93 c26 -27 29 -36 29 -96 0 -60 -3 -69 -29 -96 -78 -77 -177 11
-149 133 20 89 91 117 149 59z"/>
<path d="M15768 6287 c-34 -24 -36 -24 -41 -6 -6 22 -62 27 -68 7 -2 -7 -3
-86 -1 -176 3 -156 4 -163 25 -171 12 -4 29 -6 39 -3 16 4 18 18 17 134 -1
143 8 168 60 168 58 0 72 -34 71 -163 -2 -151 -5 -139 33 -135 l32 3 3 125 c2
111 5 127 24 147 24 26 65 30 93 9 20 -15 34 -97 34 -218 1 -70 9 -80 54 -70
15 4 17 18 17 121 -1 136 -10 186 -42 218 -33 33 -106 36 -147 5 -37 -27 -49
-27 -76 -2 -36 33 -84 36 -127 7z"/>
<path d="M16350 6290 c-30 -24 -40 -25 -40 -4 0 12 -9 14 -37 12 -29 -2 -38
-7 -37 -20 0 -10 1 -90 2 -179 l2 -160 38 3 37 3 5 131 c3 90 9 136 19 148 19
23 64 20 89 -7 20 -21 22 -34 22 -150 l0 -127 40 0 40 0 0 128 c0 148 9 172
65 172 56 0 65 -24 65 -173 l0 -128 33 3 32 3 3 115 c5 201 -8 237 -93 246
-43 5 -55 2 -87 -20 l-38 -25 -36 24 c-44 30 -90 32 -124 5z"/>
<path d="M16827 6303 c-4 -3 -7 -87 -7 -185 l0 -179 36 3 36 3 4 164 c2 98 0
171 -7 182 -9 18 -49 26 -62 12z"/>
<path d="M12852 6284 c-25 -17 -29 -56 -8 -73 8 -7 30 -11 48 -9 28 3 33 7 36
31 4 29 -21 67 -42 67 -6 0 -22 -7 -34 -16z"/>
<path d="M14668 6163 l-88 -4 0 -29 0 -30 111 0 110 0 -3 33 c-3 36 2 35 -130
30z"/>
<path d="M12857 6012 c-15 -15 -27 -36 -27 -45 0 -23 42 -41 75 -33 23 6 26
11 23 43 -2 23 -11 41 -24 49 -18 13 -23 11 -47 -14z"/>
<path d="M11655 5492 c-41 -8 -85 -68 -85 -114 0 -37 37 -88 75 -104 31 -12
209 -14 1298 -12 1387 3 1289 -2 1321 65 30 64 16 106 -49 149 -28 18 -65 19
-1284 20 -691 0 -1265 -1 -1276 -4z"/>
<path d="M11630 5037 c-65 -32 -77 -139 -20 -189 l30 -28 206 0 c234 0 282 8
320 53 21 25 25 38 20 66 -7 47 -35 82 -77 97 -48 18 -444 18 -479 1z"/>
<path d="M12423 5038 c-13 -6 -32 -31 -44 -55 -19 -40 -20 -47 -8 -80 8 -20
27 -45 42 -57 l28 -21 1544 -3 1544 -2 32 28 c25 23 33 38 36 78 4 43 2 55
-18 78 -14 15 -41 31 -64 36 -59 14 -3064 12 -3092 -2z"/>
<path d="M12810 4592 l-384 -2 -28 -27 c-31 -30 -46 -98 -29 -131 6 -11 26
-30 45 -41 l33 -21 2145 0 c1180 0 2160 3 2177 6 17 4 45 19 61 34 24 23 30
36 30 70 0 34 -6 48 -34 76 l-34 34 -114 0 c-62 0 -871 1 -1798 3 -927 1
-1858 1 -2070 -1z"/>
<path d="M11609 4121 c-30 -31 -33 -40 -30 -106 1 -30 9 -47 31 -67 l30 -28
1184 0 1185 0 35 34 c30 28 36 40 36 74 0 36 -5 45 -47 81 l-48 41 -1173 0
-1174 0 -29 -29z"/>
<path d="M14177 4139 c-41 -24 -58 -96 -36 -158 22 -62 13 -61 606 -61 339 0
552 4 575 10 50 14 68 43 68 107 0 40 -5 58 -24 80 l-24 28 -574 2 c-380 2
-579 -1 -591 -8z"/>
<path d="M12449 3702 c-15 -2 -37 -14 -50 -28 -20 -21 -24 -36 -23 -83 1 -70
16 -99 59 -117 51 -21 1539 -21 1590 0 48 20 76 69 73 126 -3 40 -7 47 -46 75
l-44 30 -766 0 c-422 0 -779 -1 -793 -3z"/>
<path d="M14390 3699 c-50 -11 -80 -50 -80 -104 0 -61 17 -93 62 -116 36 -18
72 -19 1083 -19 1151 0 1095 -3 1135 62 25 42 25 84 0 125 -37 61 29 58 -1115
59 -577 0 -1066 -3 -1085 -7z"/>
<path d="M12419 3235 c-43 -28 -49 -41 -49 -102 0 -38 5 -50 33 -78 30 -30 39
-33 117 -40 47 -3 265 -5 485 -3 446 3 446 3 479 72 27 56 21 84 -28 132 l-43
44 -479 0 -479 0 -36 -25z"/>
<path d="M13753 3241 c-57 -26 -77 -59 -70 -117 3 -27 13 -54 24 -66 47 -47
52 -47 853 -47 504 -1 768 3 793 10 70 19 101 117 57 179 -44 62 -12 60 -852
60 -727 0 -765 -1 -805 -19z"/>
</g>
</svg>
